<mxfile host="app.diagrams.net" modified="2022-12-16T19:58:53.283Z" agent="5.0 (Windows NT 10.0; Win64; x64) AppleWebKit/537.36 (KHTML, like Gecko) Chrome/108.0.0.0 Safari/537.36" etag="HlGP9FgXsD1HzShRCua5" version="20.5.1" type="github">
  <diagram id="Z3YpefpALJKiG02oCOf4" name="Страница 1">
    <mxGraphModel dx="2462" dy="1114" grid="1" gridSize="10" guides="1" tooltips="1" connect="1" arrows="1" fold="1" page="0" pageScale="1" pageWidth="827" pageHeight="1169" background="none" math="0" shadow="0">
      <root>
        <mxCell id="0" />
        <mxCell id="1" parent="0" />
        <mxCell id="GA9Ji7znZBDUHj4Bno0P-64" style="edgeStyle=orthogonalEdgeStyle;rounded=0;orthogonalLoop=1;jettySize=auto;html=1;entryX=0;entryY=0.5;entryDx=0;entryDy=0;" edge="1" parent="1" source="_HBrN63vwbaxgo4OwAKq-1" target="_HBrN63vwbaxgo4OwAKq-31">
          <mxGeometry relative="1" as="geometry">
            <Array as="points">
              <mxPoint x="260" y="310" />
              <mxPoint x="260" y="360" />
            </Array>
          </mxGeometry>
        </mxCell>
        <mxCell id="_HBrN63vwbaxgo4OwAKq-1" value="Анализ поступившей заявки и уточнение деталей" style="rounded=0;whiteSpace=wrap;html=1;" parent="1" vertex="1">
          <mxGeometry x="100" y="270" width="120" height="60" as="geometry" />
        </mxCell>
        <mxCell id="_HBrN63vwbaxgo4OwAKq-2" value="" style="endArrow=classic;html=1;rounded=0;entryX=0.5;entryY=1;entryDx=0;entryDy=0;" parent="1" target="_HBrN63vwbaxgo4OwAKq-1" edge="1">
          <mxGeometry width="50" height="50" relative="1" as="geometry">
            <mxPoint x="160" y="800" as="sourcePoint" />
            <mxPoint x="170" y="500" as="targetPoint" />
          </mxGeometry>
        </mxCell>
        <mxCell id="_HBrN63vwbaxgo4OwAKq-3" value="Менеджер" style="text;html=1;align=center;verticalAlign=middle;resizable=0;points=[];autosize=1;strokeColor=none;fillColor=none;" parent="1" vertex="1">
          <mxGeometry x="60" y="770" width="80" height="30" as="geometry" />
        </mxCell>
        <mxCell id="_HBrN63vwbaxgo4OwAKq-4" value="" style="endArrow=classic;html=1;rounded=0;entryX=0;entryY=0.5;entryDx=0;entryDy=0;" parent="1" target="_HBrN63vwbaxgo4OwAKq-1" edge="1">
          <mxGeometry width="50" height="50" relative="1" as="geometry">
            <mxPoint x="-52" y="300" as="sourcePoint" />
            <mxPoint x="120" y="340" as="targetPoint" />
          </mxGeometry>
        </mxCell>
        <mxCell id="_HBrN63vwbaxgo4OwAKq-7" value="Поступление заявки" style="text;html=1;align=center;verticalAlign=middle;resizable=0;points=[];autosize=1;strokeColor=none;fillColor=none;" parent="1" vertex="1">
          <mxGeometry x="-60" y="270" width="140" height="30" as="geometry" />
        </mxCell>
        <mxCell id="_HBrN63vwbaxgo4OwAKq-10" value="Текст заявки" style="text;html=1;align=center;verticalAlign=middle;resizable=0;points=[];autosize=1;strokeColor=none;fillColor=none;" parent="1" vertex="1">
          <mxGeometry y="110" width="90" height="30" as="geometry" />
        </mxCell>
        <mxCell id="_HBrN63vwbaxgo4OwAKq-11" value="" style="endArrow=classic;html=1;rounded=0;entryX=0.25;entryY=0;entryDx=0;entryDy=0;" parent="1" edge="1">
          <mxGeometry width="50" height="50" relative="1" as="geometry">
            <mxPoint x="120" y="80" as="sourcePoint" />
            <mxPoint x="120" y="270" as="targetPoint" />
          </mxGeometry>
        </mxCell>
        <mxCell id="_HBrN63vwbaxgo4OwAKq-12" value="" style="endArrow=classic;html=1;rounded=0;entryX=0.25;entryY=0;entryDx=0;entryDy=0;" parent="1" edge="1">
          <mxGeometry x="-0.4737" y="50" width="50" height="50" relative="1" as="geometry">
            <mxPoint x="140" y="80" as="sourcePoint" />
            <mxPoint x="140" y="270" as="targetPoint" />
            <mxPoint as="offset" />
          </mxGeometry>
        </mxCell>
        <mxCell id="_HBrN63vwbaxgo4OwAKq-13" value="" style="edgeStyle=isometricEdgeStyle;endArrow=none;html=1;rounded=0;" parent="1" edge="1">
          <mxGeometry x="0.5243" y="42" width="50" height="100" relative="1" as="geometry">
            <mxPoint x="80" y="120" as="sourcePoint" />
            <mxPoint x="120" y="90" as="targetPoint" />
            <mxPoint as="offset" />
          </mxGeometry>
        </mxCell>
        <mxCell id="_HBrN63vwbaxgo4OwAKq-15" value="" style="edgeStyle=isometricEdgeStyle;endArrow=none;html=1;rounded=0;" parent="1" edge="1">
          <mxGeometry x="0.5243" y="42" width="50" height="100" relative="1" as="geometry">
            <mxPoint x="90" y="165" as="sourcePoint" />
            <mxPoint x="140" y="125" as="targetPoint" />
            <mxPoint as="offset" />
          </mxGeometry>
        </mxCell>
        <mxCell id="_HBrN63vwbaxgo4OwAKq-16" value="Перечень услуг" style="text;html=1;align=center;verticalAlign=middle;resizable=0;points=[];autosize=1;strokeColor=none;fillColor=none;" parent="1" vertex="1">
          <mxGeometry y="160" width="110" height="30" as="geometry" />
        </mxCell>
        <mxCell id="_HBrN63vwbaxgo4OwAKq-17" value="" style="edgeStyle=isometricEdgeStyle;endArrow=none;html=1;rounded=0;" parent="1" edge="1">
          <mxGeometry x="0.5243" y="42" width="50" height="100" relative="1" as="geometry">
            <mxPoint x="170" y="145" as="sourcePoint" />
            <mxPoint x="220" y="105" as="targetPoint" />
            <mxPoint as="offset" />
          </mxGeometry>
        </mxCell>
        <mxCell id="_HBrN63vwbaxgo4OwAKq-18" value="Прайс лист" style="text;html=1;align=center;verticalAlign=middle;resizable=0;points=[];autosize=1;strokeColor=none;fillColor=none;" parent="1" vertex="1">
          <mxGeometry x="200" y="80" width="90" height="30" as="geometry" />
        </mxCell>
        <mxCell id="_HBrN63vwbaxgo4OwAKq-22" value="" style="endArrow=classic;html=1;rounded=0;" parent="1" edge="1">
          <mxGeometry width="50" height="50" relative="1" as="geometry">
            <mxPoint x="220" y="290" as="sourcePoint" />
            <mxPoint x="1400" y="290" as="targetPoint" />
          </mxGeometry>
        </mxCell>
        <mxCell id="_HBrN63vwbaxgo4OwAKq-23" value="Клиент &lt;br&gt;не заинтересован" style="text;html=1;align=center;verticalAlign=middle;resizable=0;points=[];autosize=1;strokeColor=none;fillColor=none;" parent="1" vertex="1">
          <mxGeometry x="220" y="250" width="120" height="40" as="geometry" />
        </mxCell>
        <mxCell id="_HBrN63vwbaxgo4OwAKq-47" style="edgeStyle=orthogonalEdgeStyle;rounded=0;orthogonalLoop=1;jettySize=auto;html=1;entryX=0;entryY=0.5;entryDx=0;entryDy=0;" parent="1" source="_HBrN63vwbaxgo4OwAKq-31" target="_HBrN63vwbaxgo4OwAKq-46" edge="1">
          <mxGeometry relative="1" as="geometry" />
        </mxCell>
        <mxCell id="_HBrN63vwbaxgo4OwAKq-31" value="Разработка макета" style="rounded=0;whiteSpace=wrap;html=1;" parent="1" vertex="1">
          <mxGeometry x="300" y="330" width="120" height="60" as="geometry" />
        </mxCell>
        <mxCell id="_HBrN63vwbaxgo4OwAKq-34" value="" style="endArrow=classic;html=1;rounded=0;entryX=0.25;entryY=0;entryDx=0;entryDy=0;" parent="1" edge="1">
          <mxGeometry x="-0.4737" y="50" width="50" height="50" relative="1" as="geometry">
            <mxPoint x="340.48" y="80" as="sourcePoint" />
            <mxPoint x="340" y="330" as="targetPoint" />
            <mxPoint as="offset" />
          </mxGeometry>
        </mxCell>
        <mxCell id="_HBrN63vwbaxgo4OwAKq-36" value="Информация &lt;br&gt;от клиента" style="text;html=1;align=center;verticalAlign=middle;resizable=0;points=[];autosize=1;strokeColor=none;fillColor=none;" parent="1" vertex="1">
          <mxGeometry x="220" y="120" width="100" height="40" as="geometry" />
        </mxCell>
        <mxCell id="_HBrN63vwbaxgo4OwAKq-38" value="Требования к &lt;br&gt;разработке макета" style="text;html=1;align=center;verticalAlign=middle;resizable=0;points=[];autosize=1;strokeColor=none;fillColor=none;" parent="1" vertex="1">
          <mxGeometry x="390" y="90" width="130" height="40" as="geometry" />
        </mxCell>
        <mxCell id="_HBrN63vwbaxgo4OwAKq-41" value="" style="edgeStyle=isometricEdgeStyle;endArrow=none;html=1;rounded=0;" parent="1" edge="1">
          <mxGeometry x="0.5243" y="42" width="50" height="100" relative="1" as="geometry">
            <mxPoint x="340" y="165" as="sourcePoint" />
            <mxPoint x="400" y="115" as="targetPoint" />
            <mxPoint as="offset" />
          </mxGeometry>
        </mxCell>
        <mxCell id="_HBrN63vwbaxgo4OwAKq-42" value="Клиент предоставляет &lt;br&gt;свой шаблон макета" style="text;html=1;align=center;verticalAlign=middle;resizable=0;points=[];autosize=1;strokeColor=none;fillColor=none;" parent="1" vertex="1">
          <mxGeometry x="390" y="155" width="150" height="40" as="geometry" />
        </mxCell>
        <mxCell id="_HBrN63vwbaxgo4OwAKq-44" value="Дизайнер" style="text;html=1;align=center;verticalAlign=middle;resizable=0;points=[];autosize=1;strokeColor=none;fillColor=none;" parent="1" vertex="1">
          <mxGeometry x="230" y="525" width="80" height="30" as="geometry" />
        </mxCell>
        <mxCell id="_HBrN63vwbaxgo4OwAKq-45" value="" style="endArrow=classic;html=1;rounded=0;entryX=0.5;entryY=1;entryDx=0;entryDy=0;" parent="1" edge="1">
          <mxGeometry width="50" height="50" relative="1" as="geometry">
            <mxPoint x="340" y="610" as="sourcePoint" />
            <mxPoint x="340" y="390" as="targetPoint" />
          </mxGeometry>
        </mxCell>
        <mxCell id="GA9Ji7znZBDUHj4Bno0P-71" style="edgeStyle=orthogonalEdgeStyle;rounded=0;orthogonalLoop=1;jettySize=auto;html=1;entryX=0;entryY=0.5;entryDx=0;entryDy=0;" edge="1" parent="1" source="_HBrN63vwbaxgo4OwAKq-46" target="_HBrN63vwbaxgo4OwAKq-65">
          <mxGeometry relative="1" as="geometry" />
        </mxCell>
        <mxCell id="_HBrN63vwbaxgo4OwAKq-46" value="Согласование макета и расчет стоимости проекта" style="rounded=0;whiteSpace=wrap;html=1;" parent="1" vertex="1">
          <mxGeometry x="505" y="390" width="120" height="60" as="geometry" />
        </mxCell>
        <mxCell id="_HBrN63vwbaxgo4OwAKq-48" value="Готовый&lt;br&gt;макет" style="text;html=1;align=center;verticalAlign=middle;resizable=0;points=[];autosize=1;strokeColor=none;fillColor=none;" parent="1" vertex="1">
          <mxGeometry x="420" y="420" width="70" height="40" as="geometry" />
        </mxCell>
        <mxCell id="_HBrN63vwbaxgo4OwAKq-49" value="" style="endArrow=classic;html=1;rounded=0;entryX=0.5;entryY=1;entryDx=0;entryDy=0;" parent="1" edge="1">
          <mxGeometry width="50" height="50" relative="1" as="geometry">
            <mxPoint x="100" y="800" as="sourcePoint" />
            <mxPoint x="550" y="450" as="targetPoint" />
            <Array as="points">
              <mxPoint x="550" y="800" />
            </Array>
          </mxGeometry>
        </mxCell>
        <mxCell id="_HBrN63vwbaxgo4OwAKq-50" value="" style="endArrow=classic;html=1;rounded=0;entryX=0.5;entryY=1;entryDx=0;entryDy=0;" parent="1" edge="1">
          <mxGeometry width="50" height="50" relative="1" as="geometry">
            <mxPoint x="580" y="670" as="sourcePoint" />
            <mxPoint x="580" y="450" as="targetPoint" />
          </mxGeometry>
        </mxCell>
        <mxCell id="_HBrN63vwbaxgo4OwAKq-52" value="Клиент" style="text;html=1;align=center;verticalAlign=middle;resizable=0;points=[];autosize=1;strokeColor=none;fillColor=none;" parent="1" vertex="1">
          <mxGeometry x="580" y="580" width="60" height="30" as="geometry" />
        </mxCell>
        <mxCell id="_HBrN63vwbaxgo4OwAKq-53" value="" style="endArrow=classic;html=1;rounded=0;entryX=0.25;entryY=0;entryDx=0;entryDy=0;" parent="1" edge="1">
          <mxGeometry x="-0.4737" y="50" width="50" height="50" relative="1" as="geometry">
            <mxPoint x="380" y="80" as="sourcePoint" />
            <mxPoint x="380" y="330" as="targetPoint" />
            <mxPoint as="offset" />
          </mxGeometry>
        </mxCell>
        <mxCell id="_HBrN63vwbaxgo4OwAKq-54" value="" style="endArrow=classic;html=1;rounded=0;entryX=0.25;entryY=0;entryDx=0;entryDy=0;" parent="1" edge="1">
          <mxGeometry x="-0.4737" y="50" width="50" height="50" relative="1" as="geometry">
            <mxPoint x="550" y="80" as="sourcePoint" />
            <mxPoint x="550" y="390" as="targetPoint" />
            <mxPoint as="offset" />
          </mxGeometry>
        </mxCell>
        <mxCell id="_HBrN63vwbaxgo4OwAKq-56" value="Отзыв клиента" style="text;html=1;align=center;verticalAlign=middle;resizable=0;points=[];autosize=1;strokeColor=none;fillColor=none;" parent="1" vertex="1">
          <mxGeometry x="600" y="110" width="110" height="30" as="geometry" />
        </mxCell>
        <mxCell id="_HBrN63vwbaxgo4OwAKq-59" value="Согласованный&lt;br&gt;и оцененный макет" style="text;html=1;align=center;verticalAlign=middle;resizable=0;points=[];autosize=1;strokeColor=none;fillColor=none;" parent="1" vertex="1">
          <mxGeometry x="590" y="480" width="130" height="40" as="geometry" />
        </mxCell>
        <mxCell id="_HBrN63vwbaxgo4OwAKq-62" value="" style="endArrow=classic;html=1;rounded=0;entryX=0.25;entryY=0;entryDx=0;entryDy=0;" parent="1" edge="1">
          <mxGeometry x="-0.4737" y="50" width="50" height="50" relative="1" as="geometry">
            <mxPoint x="580" y="80" as="sourcePoint" />
            <mxPoint x="580" y="390" as="targetPoint" />
            <mxPoint as="offset" />
          </mxGeometry>
        </mxCell>
        <mxCell id="_HBrN63vwbaxgo4OwAKq-64" value="Прайс-лист" style="text;html=1;align=center;verticalAlign=middle;resizable=0;points=[];autosize=1;strokeColor=none;fillColor=none;" parent="1" vertex="1">
          <mxGeometry x="590" y="170" width="90" height="30" as="geometry" />
        </mxCell>
        <mxCell id="GA9Ji7znZBDUHj4Bno0P-77" style="edgeStyle=orthogonalEdgeStyle;rounded=0;orthogonalLoop=1;jettySize=auto;html=1;entryX=0;entryY=0.5;entryDx=0;entryDy=0;" edge="1" parent="1" source="_HBrN63vwbaxgo4OwAKq-65" target="GA9Ji7znZBDUHj4Bno0P-33">
          <mxGeometry relative="1" as="geometry" />
        </mxCell>
        <mxCell id="_HBrN63vwbaxgo4OwAKq-65" value="Заключение договора и отправка его клиенту" style="rounded=0;whiteSpace=wrap;html=1;" parent="1" vertex="1">
          <mxGeometry x="720" y="450" width="120" height="60" as="geometry" />
        </mxCell>
        <mxCell id="_HBrN63vwbaxgo4OwAKq-68" value="" style="endArrow=classic;html=1;rounded=0;entryX=0.25;entryY=0;entryDx=0;entryDy=0;" parent="1" edge="1">
          <mxGeometry x="-0.4737" y="50" width="50" height="50" relative="1" as="geometry">
            <mxPoint x="750" y="140" as="sourcePoint" />
            <mxPoint x="750" y="450" as="targetPoint" />
            <mxPoint as="offset" />
          </mxGeometry>
        </mxCell>
        <mxCell id="_HBrN63vwbaxgo4OwAKq-69" value="Подпись клиента" style="text;html=1;align=center;verticalAlign=middle;resizable=0;points=[];autosize=1;strokeColor=none;fillColor=none;" parent="1" vertex="1">
          <mxGeometry x="625" y="230" width="120" height="30" as="geometry" />
        </mxCell>
        <mxCell id="_HBrN63vwbaxgo4OwAKq-70" value="" style="endArrow=classic;html=1;rounded=0;entryX=0.5;entryY=1;entryDx=0;entryDy=0;" parent="1" edge="1">
          <mxGeometry width="50" height="50" relative="1" as="geometry">
            <mxPoint x="550" y="800" as="sourcePoint" />
            <mxPoint x="750.0000000000002" y="510" as="targetPoint" />
            <Array as="points">
              <mxPoint x="750" y="800" />
            </Array>
          </mxGeometry>
        </mxCell>
        <mxCell id="_HBrN63vwbaxgo4OwAKq-72" value="" style="endArrow=classic;html=1;rounded=0;entryX=0.5;entryY=1;entryDx=0;entryDy=0;" parent="1" edge="1">
          <mxGeometry width="50" height="50" relative="1" as="geometry">
            <mxPoint x="380" y="610" as="sourcePoint" />
            <mxPoint x="380" y="390" as="targetPoint" />
          </mxGeometry>
        </mxCell>
        <mxCell id="_HBrN63vwbaxgo4OwAKq-73" value="Веб-дизайнер" style="text;html=1;align=center;verticalAlign=middle;resizable=0;points=[];autosize=1;strokeColor=none;fillColor=none;" parent="1" vertex="1">
          <mxGeometry x="390" y="495" width="100" height="30" as="geometry" />
        </mxCell>
        <mxCell id="GA9Ji7znZBDUHj4Bno0P-1" value="" style="edgeStyle=isometricEdgeStyle;endArrow=none;html=1;rounded=0;" edge="1" parent="1">
          <mxGeometry x="0.5243" y="42" width="50" height="100" relative="1" as="geometry">
            <mxPoint x="290" y="530" as="sourcePoint" />
            <mxPoint x="340" y="490" as="targetPoint" />
            <mxPoint as="offset" />
          </mxGeometry>
        </mxCell>
        <mxCell id="GA9Ji7znZBDUHj4Bno0P-2" value="" style="edgeStyle=isometricEdgeStyle;endArrow=none;html=1;rounded=0;" edge="1" parent="1">
          <mxGeometry x="0.5243" y="42" width="50" height="100" relative="1" as="geometry">
            <mxPoint x="380" y="565" as="sourcePoint" />
            <mxPoint x="430" y="525" as="targetPoint" />
            <mxPoint as="offset" />
          </mxGeometry>
        </mxCell>
        <mxCell id="GA9Ji7znZBDUHj4Bno0P-6" value="Генеральный&lt;br&gt;директор" style="text;html=1;align=center;verticalAlign=middle;resizable=0;points=[];autosize=1;strokeColor=none;fillColor=none;" vertex="1" parent="1">
          <mxGeometry x="820" y="665" width="100" height="40" as="geometry" />
        </mxCell>
        <mxCell id="GA9Ji7znZBDUHj4Bno0P-15" value="" style="endArrow=classic;html=1;rounded=0;entryX=0.5;entryY=1;entryDx=0;entryDy=0;" edge="1" parent="1">
          <mxGeometry width="50" height="50" relative="1" as="geometry">
            <mxPoint x="810" y="760" as="sourcePoint" />
            <mxPoint x="810" y="510" as="targetPoint" />
          </mxGeometry>
        </mxCell>
        <mxCell id="GA9Ji7znZBDUHj4Bno0P-16" value="Курьер" style="text;html=1;align=center;verticalAlign=middle;resizable=0;points=[];autosize=1;strokeColor=none;fillColor=none;" vertex="1" parent="1">
          <mxGeometry x="720" y="840" width="60" height="30" as="geometry" />
        </mxCell>
        <mxCell id="GA9Ji7znZBDUHj4Bno0P-17" value="" style="endArrow=classic;html=1;rounded=0;entryX=0.25;entryY=0;entryDx=0;entryDy=0;" edge="1" parent="1">
          <mxGeometry x="-0.4737" y="50" width="50" height="50" relative="1" as="geometry">
            <mxPoint x="779.72" y="140" as="sourcePoint" />
            <mxPoint x="779.72" y="450" as="targetPoint" />
            <mxPoint as="offset" />
          </mxGeometry>
        </mxCell>
        <mxCell id="GA9Ji7znZBDUHj4Bno0P-18" value="Бланк договра" style="text;html=1;align=center;verticalAlign=middle;resizable=0;points=[];autosize=1;strokeColor=none;fillColor=none;" vertex="1" parent="1">
          <mxGeometry x="820" y="200" width="100" height="30" as="geometry" />
        </mxCell>
        <mxCell id="GA9Ji7znZBDUHj4Bno0P-19" value="" style="edgeStyle=isometricEdgeStyle;endArrow=none;html=1;rounded=0;" edge="1" parent="1">
          <mxGeometry x="0.5243" y="42" width="50" height="100" relative="1" as="geometry">
            <mxPoint x="700" y="235" as="sourcePoint" />
            <mxPoint x="750" y="195" as="targetPoint" />
            <mxPoint as="offset" />
          </mxGeometry>
        </mxCell>
        <mxCell id="GA9Ji7znZBDUHj4Bno0P-20" value="" style="edgeStyle=isometricEdgeStyle;endArrow=none;html=1;rounded=0;" edge="1" parent="1">
          <mxGeometry x="0.5243" y="42" width="50" height="100" relative="1" as="geometry">
            <mxPoint x="780" y="260" as="sourcePoint" />
            <mxPoint x="830" y="220" as="targetPoint" />
            <mxPoint as="offset" />
          </mxGeometry>
        </mxCell>
        <mxCell id="GA9Ji7znZBDUHj4Bno0P-21" value="" style="endArrow=classic;html=1;rounded=0;entryX=0.25;entryY=0;entryDx=0;entryDy=0;" edge="1" parent="1">
          <mxGeometry x="-0.4737" y="50" width="50" height="50" relative="1" as="geometry">
            <mxPoint x="810.0000000000001" y="140" as="sourcePoint" />
            <mxPoint x="810.0000000000001" y="450" as="targetPoint" />
            <mxPoint as="offset" />
          </mxGeometry>
        </mxCell>
        <mxCell id="GA9Ji7znZBDUHj4Bno0P-26" value="" style="endArrow=classic;html=1;rounded=0;entryX=0.5;entryY=1;entryDx=0;entryDy=0;" edge="1" parent="1">
          <mxGeometry width="50" height="50" relative="1" as="geometry">
            <mxPoint x="750" y="800" as="sourcePoint" />
            <mxPoint x="979.9999999999999" y="590" as="targetPoint" />
            <Array as="points">
              <mxPoint x="980" y="800" />
            </Array>
          </mxGeometry>
        </mxCell>
        <mxCell id="GA9Ji7znZBDUHj4Bno0P-28" value="" style="endArrow=classic;html=1;rounded=0;entryX=0.25;entryY=0;entryDx=0;entryDy=0;" edge="1" parent="1">
          <mxGeometry x="-0.4737" y="50" width="50" height="50" relative="1" as="geometry">
            <mxPoint x="989.9999999999993" y="210" as="sourcePoint" />
            <mxPoint x="989.9999999999993" y="520" as="targetPoint" />
            <mxPoint as="offset" />
          </mxGeometry>
        </mxCell>
        <mxCell id="GA9Ji7znZBDUHj4Bno0P-29" value="Чек по оплате" style="text;html=1;align=center;verticalAlign=middle;resizable=0;points=[];autosize=1;strokeColor=none;fillColor=none;" vertex="1" parent="1">
          <mxGeometry x="879.9999999999999" y="360" width="100" height="30" as="geometry" />
        </mxCell>
        <mxCell id="GA9Ji7znZBDUHj4Bno0P-31" value="Бухгалтер" style="text;html=1;align=center;verticalAlign=middle;resizable=0;points=[];autosize=1;strokeColor=none;fillColor=none;" vertex="1" parent="1">
          <mxGeometry x="1040" y="690" width="80" height="30" as="geometry" />
        </mxCell>
        <mxCell id="GA9Ji7znZBDUHj4Bno0P-32" value="Счет за услуги&lt;br&gt;оплачен клиентом" style="text;html=1;align=center;verticalAlign=middle;resizable=0;points=[];autosize=1;strokeColor=none;fillColor=none;" vertex="1" parent="1">
          <mxGeometry x="820" y="550" width="130" height="40" as="geometry" />
        </mxCell>
        <mxCell id="GA9Ji7znZBDUHj4Bno0P-81" style="edgeStyle=orthogonalEdgeStyle;rounded=0;orthogonalLoop=1;jettySize=auto;html=1;entryX=0;entryY=0.5;entryDx=0;entryDy=0;" edge="1" parent="1" source="GA9Ji7znZBDUHj4Bno0P-33" target="GA9Ji7znZBDUHj4Bno0P-46">
          <mxGeometry relative="1" as="geometry" />
        </mxCell>
        <mxCell id="GA9Ji7znZBDUHj4Bno0P-33" value="Формирование заявки на печать и передача ее в типографию для печати" style="rounded=0;whiteSpace=wrap;html=1;" vertex="1" parent="1">
          <mxGeometry x="950" y="520" width="120" height="70" as="geometry" />
        </mxCell>
        <mxCell id="GA9Ji7znZBDUHj4Bno0P-37" value="" style="endArrow=classic;html=1;rounded=0;entryX=0.5;entryY=1;entryDx=0;entryDy=0;" edge="1" parent="1">
          <mxGeometry width="50" height="50" relative="1" as="geometry">
            <mxPoint x="1010" y="800" as="sourcePoint" />
            <mxPoint x="1010" y="590" as="targetPoint" />
          </mxGeometry>
        </mxCell>
        <mxCell id="GA9Ji7znZBDUHj4Bno0P-39" value="Параметры &lt;br&gt;печати&lt;br&gt;(формат, кол-во)" style="text;html=1;align=center;verticalAlign=middle;resizable=0;points=[];autosize=1;strokeColor=none;fillColor=none;" vertex="1" parent="1">
          <mxGeometry x="1009.9999999999999" y="330" width="120" height="60" as="geometry" />
        </mxCell>
        <mxCell id="GA9Ji7znZBDUHj4Bno0P-44" value="" style="endArrow=classic;html=1;rounded=0;entryX=0.5;entryY=1;entryDx=0;entryDy=0;" edge="1" parent="1">
          <mxGeometry width="50" height="50" relative="1" as="geometry">
            <mxPoint x="1040" y="800" as="sourcePoint" />
            <mxPoint x="1039.9999999999993" y="590" as="targetPoint" />
          </mxGeometry>
        </mxCell>
        <mxCell id="GA9Ji7znZBDUHj4Bno0P-45" value="Типография" style="text;html=1;align=center;verticalAlign=middle;resizable=0;points=[];autosize=1;strokeColor=none;fillColor=none;" vertex="1" parent="1">
          <mxGeometry x="1060" y="730" width="90" height="30" as="geometry" />
        </mxCell>
        <mxCell id="GA9Ji7znZBDUHj4Bno0P-87" style="edgeStyle=orthogonalEdgeStyle;rounded=0;orthogonalLoop=1;jettySize=auto;html=1;" edge="1" parent="1" source="GA9Ji7znZBDUHj4Bno0P-46">
          <mxGeometry relative="1" as="geometry">
            <mxPoint x="1400" y="620" as="targetPoint" />
          </mxGeometry>
        </mxCell>
        <mxCell id="GA9Ji7znZBDUHj4Bno0P-46" value="Передача листовок расклейщику или партнеру и их реализация" style="rounded=0;whiteSpace=wrap;html=1;" vertex="1" parent="1">
          <mxGeometry x="1150" y="590" width="120" height="60" as="geometry" />
        </mxCell>
        <mxCell id="GA9Ji7znZBDUHj4Bno0P-48" value="" style="endArrow=classic;html=1;rounded=0;entryX=0.5;entryY=1;entryDx=0;entryDy=0;" edge="1" parent="1">
          <mxGeometry width="50" height="50" relative="1" as="geometry">
            <mxPoint x="750" y="870" as="sourcePoint" />
            <mxPoint x="1179.9999999999993" y="650" as="targetPoint" />
            <Array as="points">
              <mxPoint x="1180" y="870" />
            </Array>
          </mxGeometry>
        </mxCell>
        <mxCell id="GA9Ji7znZBDUHj4Bno0P-52" value="" style="endArrow=classic;html=1;rounded=0;entryX=0.25;entryY=0;entryDx=0;entryDy=0;" edge="1" parent="1">
          <mxGeometry x="-0.4737" y="50" width="50" height="50" relative="1" as="geometry">
            <mxPoint x="1180" y="320" as="sourcePoint" />
            <mxPoint x="1179.9999999999993" y="590" as="targetPoint" />
            <mxPoint as="offset" />
            <Array as="points" />
          </mxGeometry>
        </mxCell>
        <mxCell id="GA9Ji7znZBDUHj4Bno0P-53" value="Выбор клиента по &lt;br&gt;размещению листовок" style="text;html=1;align=center;verticalAlign=middle;resizable=0;points=[];autosize=1;strokeColor=none;fillColor=none;" vertex="1" parent="1">
          <mxGeometry x="1250" y="365" width="150" height="40" as="geometry" />
        </mxCell>
        <mxCell id="GA9Ji7znZBDUHj4Bno0P-56" value="Напечатанные&lt;br&gt;листовки" style="text;html=1;align=center;verticalAlign=middle;resizable=0;points=[];autosize=1;strokeColor=none;fillColor=none;" vertex="1" parent="1">
          <mxGeometry x="1050" y="620" width="100" height="40" as="geometry" />
        </mxCell>
        <mxCell id="GA9Ji7znZBDUHj4Bno0P-57" value="" style="endArrow=classic;html=1;rounded=0;entryX=0.25;entryY=0;entryDx=0;entryDy=0;" edge="1" parent="1">
          <mxGeometry x="-0.4737" y="50" width="50" height="50" relative="1" as="geometry">
            <mxPoint x="1220" y="320" as="sourcePoint" />
            <mxPoint x="1219.9999999999993" y="590" as="targetPoint" />
            <mxPoint as="offset" />
            <Array as="points" />
          </mxGeometry>
        </mxCell>
        <mxCell id="GA9Ji7znZBDUHj4Bno0P-58" value="Список мест&lt;br&gt;для расклейки &lt;br&gt;или раздачи" style="text;html=1;align=center;verticalAlign=middle;resizable=0;points=[];autosize=1;strokeColor=none;fillColor=none;" vertex="1" parent="1">
          <mxGeometry x="1080" y="430" width="100" height="60" as="geometry" />
        </mxCell>
        <mxCell id="GA9Ji7znZBDUHj4Bno0P-59" value="" style="endArrow=classic;html=1;rounded=0;entryX=0.5;entryY=1;entryDx=0;entryDy=0;" edge="1" parent="1">
          <mxGeometry width="50" height="50" relative="1" as="geometry">
            <mxPoint x="1219.999999999999" y="870" as="sourcePoint" />
            <mxPoint x="1219.999999999999" y="650" as="targetPoint" />
          </mxGeometry>
        </mxCell>
        <mxCell id="GA9Ji7znZBDUHj4Bno0P-60" value="Расклейщик&lt;br&gt;или партнер" style="text;html=1;align=center;verticalAlign=middle;resizable=0;points=[];autosize=1;strokeColor=none;fillColor=none;" vertex="1" parent="1">
          <mxGeometry x="1220" y="785" width="90" height="40" as="geometry" />
        </mxCell>
        <mxCell id="GA9Ji7znZBDUHj4Bno0P-61" value="" style="endArrow=classic;html=1;rounded=0;entryX=0.25;entryY=0;entryDx=0;entryDy=0;" edge="1" parent="1">
          <mxGeometry x="-0.4737" y="50" width="50" height="50" relative="1" as="geometry">
            <mxPoint x="170" y="80" as="sourcePoint" />
            <mxPoint x="170" y="270" as="targetPoint" />
            <mxPoint as="offset" />
          </mxGeometry>
        </mxCell>
        <mxCell id="GA9Ji7znZBDUHj4Bno0P-62" value="" style="endArrow=classic;html=1;rounded=0;entryX=0.25;entryY=0;entryDx=0;entryDy=0;" edge="1" parent="1">
          <mxGeometry x="-0.4737" y="50" width="50" height="50" relative="1" as="geometry">
            <mxPoint x="190" y="80" as="sourcePoint" />
            <mxPoint x="190" y="270" as="targetPoint" />
            <mxPoint as="offset" />
          </mxGeometry>
        </mxCell>
        <mxCell id="GA9Ji7znZBDUHj4Bno0P-63" value="" style="edgeStyle=isometricEdgeStyle;endArrow=none;html=1;rounded=0;" edge="1" parent="1">
          <mxGeometry x="0.5243" y="42" width="50" height="100" relative="1" as="geometry">
            <mxPoint x="190" y="190" as="sourcePoint" />
            <mxPoint x="240" y="150" as="targetPoint" />
            <mxPoint as="offset" />
          </mxGeometry>
        </mxCell>
        <mxCell id="GA9Ji7znZBDUHj4Bno0P-65" value="Уточненная&amp;nbsp;&lt;br&gt;заявка" style="text;html=1;align=center;verticalAlign=middle;resizable=0;points=[];autosize=1;strokeColor=none;fillColor=none;" vertex="1" parent="1">
          <mxGeometry x="210" y="365" width="90" height="40" as="geometry" />
        </mxCell>
        <mxCell id="GA9Ji7znZBDUHj4Bno0P-67" value="" style="edgeStyle=isometricEdgeStyle;endArrow=none;html=1;rounded=0;" edge="1" parent="1">
          <mxGeometry x="0.5243" y="42" width="50" height="100" relative="1" as="geometry">
            <mxPoint x="380" y="220" as="sourcePoint" />
            <mxPoint x="410" y="190" as="targetPoint" />
            <mxPoint as="offset" />
          </mxGeometry>
        </mxCell>
        <mxCell id="GA9Ji7znZBDUHj4Bno0P-69" value="" style="edgeStyle=isometricEdgeStyle;endArrow=none;html=1;rounded=0;" edge="1" parent="1">
          <mxGeometry x="0.5243" y="42" width="50" height="100" relative="1" as="geometry">
            <mxPoint x="550" y="180" as="sourcePoint" />
            <mxPoint x="610" y="130" as="targetPoint" />
            <mxPoint as="offset" />
          </mxGeometry>
        </mxCell>
        <mxCell id="GA9Ji7znZBDUHj4Bno0P-70" value="" style="edgeStyle=isometricEdgeStyle;endArrow=none;html=1;rounded=0;" edge="1" parent="1">
          <mxGeometry x="0.5243" y="42" width="50" height="100" relative="1" as="geometry">
            <mxPoint x="580" y="225" as="sourcePoint" />
            <mxPoint x="610" y="195" as="targetPoint" />
            <mxPoint as="offset" />
          </mxGeometry>
        </mxCell>
        <mxCell id="GA9Ji7znZBDUHj4Bno0P-72" value="" style="endArrow=classic;html=1;rounded=0;entryX=0.5;entryY=1;entryDx=0;entryDy=0;" edge="1" parent="1">
          <mxGeometry width="50" height="50" relative="1" as="geometry">
            <mxPoint x="780" y="870" as="sourcePoint" />
            <mxPoint x="779.67" y="510" as="targetPoint" />
          </mxGeometry>
        </mxCell>
        <mxCell id="GA9Ji7znZBDUHj4Bno0P-73" value="" style="edgeStyle=isometricEdgeStyle;endArrow=none;html=1;rounded=0;" edge="1" parent="1">
          <mxGeometry x="0.5243" y="42" width="50" height="100" relative="1" as="geometry">
            <mxPoint x="780" y="210" as="sourcePoint" />
            <mxPoint x="830" y="170" as="targetPoint" />
            <mxPoint as="offset" />
          </mxGeometry>
        </mxCell>
        <mxCell id="GA9Ji7znZBDUHj4Bno0P-74" value="Адрес клиента" style="text;html=1;align=center;verticalAlign=middle;resizable=0;points=[];autosize=1;strokeColor=none;fillColor=none;" vertex="1" parent="1">
          <mxGeometry x="820" y="150" width="110" height="30" as="geometry" />
        </mxCell>
        <mxCell id="GA9Ji7znZBDUHj4Bno0P-76" value="" style="edgeStyle=isometricEdgeStyle;endArrow=none;html=1;rounded=0;" edge="1" parent="1">
          <mxGeometry x="0.5243" y="42" width="50" height="100" relative="1" as="geometry">
            <mxPoint x="810" y="745" as="sourcePoint" />
            <mxPoint x="860" y="705" as="targetPoint" />
            <mxPoint as="offset" />
          </mxGeometry>
        </mxCell>
        <mxCell id="GA9Ji7znZBDUHj4Bno0P-78" value="" style="endArrow=classic;html=1;rounded=0;entryX=0.25;entryY=0;entryDx=0;entryDy=0;" edge="1" parent="1">
          <mxGeometry x="-0.4737" y="50" width="50" height="50" relative="1" as="geometry">
            <mxPoint x="1019.9999999999991" y="210" as="sourcePoint" />
            <mxPoint x="1019.9999999999991" y="520" as="targetPoint" />
            <mxPoint as="offset" />
          </mxGeometry>
        </mxCell>
        <mxCell id="GA9Ji7znZBDUHj4Bno0P-79" value="" style="edgeStyle=isometricEdgeStyle;endArrow=none;html=1;rounded=0;" edge="1" parent="1">
          <mxGeometry x="0.5243" y="42" width="50" height="100" relative="1" as="geometry">
            <mxPoint x="1010" y="755" as="sourcePoint" />
            <mxPoint x="1060" y="715" as="targetPoint" />
            <mxPoint as="offset" />
          </mxGeometry>
        </mxCell>
        <mxCell id="GA9Ji7znZBDUHj4Bno0P-80" value="" style="edgeStyle=isometricEdgeStyle;endArrow=none;html=1;rounded=0;" edge="1" parent="1">
          <mxGeometry x="0.5243" y="42" width="50" height="100" relative="1" as="geometry">
            <mxPoint x="1040" y="790" as="sourcePoint" />
            <mxPoint x="1090" y="750" as="targetPoint" />
            <mxPoint as="offset" />
          </mxGeometry>
        </mxCell>
        <mxCell id="GA9Ji7znZBDUHj4Bno0P-82" value="" style="edgeStyle=isometricEdgeStyle;endArrow=none;html=1;rounded=0;" edge="1" parent="1">
          <mxGeometry x="0.5243" y="42" width="50" height="100" relative="1" as="geometry">
            <mxPoint x="940" y="370" as="sourcePoint" />
            <mxPoint x="990" y="330" as="targetPoint" />
            <mxPoint as="offset" />
          </mxGeometry>
        </mxCell>
        <mxCell id="GA9Ji7znZBDUHj4Bno0P-83" value="" style="edgeStyle=isometricEdgeStyle;endArrow=none;html=1;rounded=0;" edge="1" parent="1">
          <mxGeometry x="0.5243" y="42" width="50" height="100" relative="1" as="geometry">
            <mxPoint x="1020" y="420" as="sourcePoint" />
            <mxPoint x="1070" y="380" as="targetPoint" />
            <mxPoint as="offset" />
          </mxGeometry>
        </mxCell>
        <mxCell id="GA9Ji7znZBDUHj4Bno0P-84" value="" style="edgeStyle=isometricEdgeStyle;endArrow=none;html=1;rounded=0;" edge="1" parent="1">
          <mxGeometry x="0.5243" y="42" width="50" height="100" relative="1" as="geometry">
            <mxPoint x="1130" y="435" as="sourcePoint" />
            <mxPoint x="1180" y="395" as="targetPoint" />
            <mxPoint as="offset" />
          </mxGeometry>
        </mxCell>
        <mxCell id="GA9Ji7znZBDUHj4Bno0P-85" value="" style="edgeStyle=isometricEdgeStyle;endArrow=none;html=1;rounded=0;" edge="1" parent="1">
          <mxGeometry x="0.5243" y="42" width="50" height="100" relative="1" as="geometry">
            <mxPoint x="1220" y="445" as="sourcePoint" />
            <mxPoint x="1270" y="405" as="targetPoint" />
            <mxPoint as="offset" />
          </mxGeometry>
        </mxCell>
        <mxCell id="GA9Ji7znZBDUHj4Bno0P-88" value="Конец&lt;br&gt;процесса" style="text;html=1;align=center;verticalAlign=middle;resizable=0;points=[];autosize=1;strokeColor=none;fillColor=none;" vertex="1" parent="1">
          <mxGeometry x="1315" y="625" width="80" height="40" as="geometry" />
        </mxCell>
      </root>
    </mxGraphModel>
  </diagram>
</mxfile>
